<?xml version="1.0" encoding="utf-8"?>
<!-- Generator: Adobe Illustrator 23.0.5, SVG Export Plug-In . SVG Version: 6.00 Build 0)  -->
<svg version="1.1" id="Layer_1" xmlns="http://www.w3.org/2000/svg" xmlns:xlink="http://www.w3.org/1999/xlink" x="0px" y="0px"
	 viewBox="0 0 166 49" style="enable-background:new 0 0 166 49;" xml:space="preserve">
<style type="text/css">
	.st0{fill-rule:evenodd;clip-rule:evenodd;fill:#BDBAFA;}
	.st1{fill-rule:evenodd;clip-rule:evenodd;fill:#231F20;}
</style>
<g>
	<path class="st0" d="M0,14.1v0.1l28,13.1l28-13.2l0,0L28,1L0,14.1z M10.1,14.2L28,5.8l17.9,8.4L28,22.6L10.1,14.2L10.1,14.2z
		 M28,32.5l-28-13v4.8l28,13l28-13v-4.8L28,32.5z M28,42.2L0,29.3V34l28,13l28-13v-4.8L28,42.2z"/>
	<g transform="translate(72)">
		<path class="st1" d="M78.4,27.3c0-2.1-0.8-4.1-2.2-5.6c-0.7-0.7-1.5-1.3-2.3-1.7c-0.9-0.4-1.9-0.6-2.8-0.6c-1,0-2,0.2-2.9,0.6
			s-1.7,1-2.3,1.7c-1.4,1.5-2.2,3.5-2.2,5.6s0.8,4.1,2.2,5.6c0.7,0.7,1.5,1.3,2.3,1.7c0.9,0.4,1.9,0.6,2.9,0.6s2-0.2,2.9-0.6
			s1.7-1,2.3-1.7C77.6,31.3,78.4,29.3,78.4,27.3L78.4,27.3z M84.8,27.3c0,1.9-0.4,3.7-1.1,5.4C83,34.3,82,35.8,80.8,37
			c-1.2,1.2-2.7,2.2-4.4,2.9c-1.7,0.7-3.5,1-5.4,1s-3.7-0.3-5.3-1c-1.6-0.7-3.1-1.6-4.4-2.9c-1.3-1.2-2.3-2.7-2.9-4.3
			c-0.7-1.6-1.1-3.4-1.1-5.3s0.4-3.6,1.1-5.3c0.7-1.6,1.7-3.1,3-4.3c1.3-1.2,2.7-2.2,4.4-2.9c1.7-0.7,3.5-1.1,5.3-1
			c1.9,0,3.7,0.4,5.4,1c1.7,0.7,3.1,1.6,4.4,2.9s2.2,2.6,2.9,4.3C84.4,23.6,84.8,25.4,84.8,27.3z M55.1,40c-0.5,0.3-1.1,0.4-1.7,0.6
			c-0.6,0.1-1.3,0.2-2,0.2c-0.9,0-1.8-0.1-2.7-0.4c-0.8-0.2-1.6-0.7-2.3-1.2c-0.7-0.6-1.2-1.3-1.6-2.2c-0.4-0.9-0.6-2-0.6-3.3V3.1
			h6.5v29.5c0,1.1,0.2,1.8,0.6,2.2c0.4,0.4,0.9,0.6,1.5,0.6c0.7,0,1.5-0.2,2.1-0.7C55.1,34.7,55.1,40,55.1,40z M41.3,14.3L29.7,45
			c-0.9,2.3-2,3.9-3.4,5c-1.4,1-3.1,1.5-5,1.5c-0.3,0-0.6,0-1-0.1c-0.3,0-0.7-0.1-1-0.2l-2.1-6c0.5,0.2,1,0.4,1.6,0.6
			c0.5,0.1,1,0.2,1.5,0.2c1,0,1.9-0.2,2.8-0.7c0.8-0.5,1.5-1.3,1.9-2.6l0.8-2.6l-9.9-25.8h7l5.9,16.6l5.6-16.6L41.3,14.3L41.3,14.3z
			 M14.3,10.4H-2.4v8.3h16.5v5.6H-2.4v15.8h-6.8V4.5h23.5V10.4L14.3,10.4z"/>
	</g>
</g>
</svg>
